<svg xmlns="http://www.w3.org/2000/svg" width="2503" height="1497" viewBox="0 0 2503 1497">
  <defs>
    <style>
      .cls-1 {
        fill: #01ff8e;
      }

      .cls-1, .cls-2 {
        fill-rule: evenodd;
      }
    </style>
  </defs>
  <path id="quick" class="cls-1" d="M579.216,199.577H450.438v48.54C404.87,209.483,347.415,186.7,285.007,186.7,132.455,186.7,11.6,308.544,11.6,456.143c0,148.59,120.854,269.444,273.406,269.444,62.408,0,118.872-22.784,164.44-60.427V919.745H579.216V199.577ZM451.428,456.143c0,87.173-69.342,155.525-155.524,155.525A155.155,155.155,0,0,1,140.379,456.143c0-86.182,70.333-156.515,155.525-156.515C382.086,299.628,451.428,369.961,451.428,456.143Zm216.9,69.342c0,110.948,82.22,198.12,202.083,198.12,55.473,0,105-20.8,140.666-57.454v45.567h129.77V199.577H1011.08V499.73c0,65.379-43.587,109.956-106.986,109.956S798.1,563.128,798.1,499.73V199.577H668.331V525.485ZM1295.35,145.094c40.61,0,71.32-31.7,71.32-72.314s-30.71-71.323-71.32-71.323-73.31,30.709-73.31,71.323S1254.73,145.094,1295.35,145.094Zm64.39,54.483H1229.97V711.718h129.77V199.577Zm200.08,255.576c0-86.183,68.36-154.534,152.56-154.534,54.48,0,99.06,25.755,128.78,66.37l92.12-67.361c-51.51-67.361-120.85-112.928-220.9-112.928-158.5,0-281.33,119.862-281.33,268.453S1553.88,724.6,1712.38,724.6c100.05,0,169.39-45.568,220.9-112.928l-92.12-67.361c-29.72,40.614-74.3,66.37-128.78,66.37C1628.18,610.677,1559.82,541.335,1559.82,455.153ZM1986.74,18.3V711.718h129.77V482.889l183.26,228.829h158.5l-221.9-265.481,207.04-246.66H2294.82l-178.31,220.9V18.3H1986.74Z"/>
  <path id="chop" class="cls-2" d="M668.375,1101.46c0-72.21,57.267-129.474,127.813-129.474,45.648,0,83,21.578,107.894,55.6l77.186-56.434c-43.157-56.437-101.254-94.615-185.08-94.615-132.793,0-235.708,100.424-235.708,224.919S663.4,1327.21,796.188,1327.21c83.826,0,141.923-38.18,185.08-94.62l-77.186-56.44c-24.9,34.03-62.246,55.61-107.894,55.61C725.642,1231.76,668.375,1173.67,668.375,1101.46Zm466.405-36.52c0-57.27,37.35-92.124,89.64-92.124,53.12,0,88.8,36.514,88.8,92.124v251.48h108.73V1043.36c0-93.783-68.06-167.649-167.65-167.649-47.31,0-89.64,17.429-119.52,48.967V735.448H1026.06V1316.42h108.72V1064.94Zm818.31,37.35c0-125.325-105.4-225.749-235.71-225.749-129.47,0-235.7,101.254-235.7,225.749s106.23,225.75,235.7,225.75C1847.69,1328.04,1953.09,1226.78,1953.09,1102.29Zm-107.89,0c0,72.21-56.44,129.47-127.82,129.47-70.54,0-127.81-57.26-127.81-129.47s57.27-129.474,127.81-129.474C1788.76,972.816,1845.2,1030.08,1845.2,1102.29Zm167.62-214.96v603.38h108.72v-213.3c38.18,31.54,85.49,50.63,137.77,50.63,127.82,0,229.07-101.26,229.07-225.75,0-123.665-101.25-225.749-229.07-225.749-52.28,0-100.42,19.089-138.6,51.457V887.33H2012.82Zm107.06,214.96c0-72.21,58.1-131.134,130.3-131.134,71.38,0,130.31,58.924,130.31,131.134a129.991,129.991,0,0,1-130.31,130.3C2177.98,1232.59,2119.88,1175.33,2119.88,1102.29Z"/>
</svg>
