<svg xmlns="http://www.w3.org/2000/svg" width="2503" height="1497" viewBox="0 0 2503 1497">
  <defs>
    <style>
      .cls-1, .cls-2, .cls-3 {
        fill-rule: evenodd;
      }

      .cls-2 {
        fill: #01ff8e;
      }

      .cls-3 {
        fill: #fff;
      }
    </style>
  </defs>
  <path class="cls-1" d="M328,105H2132c139.18,0,252,112.824,252,252v754c0,139.18-112.82,252-252,252H328c-139.176,0-252-112.82-252-252V357C76,217.824,188.824,105,328,105Z"/>
  <path id="quick" class="cls-2" d="M624.047,297.756H526.571V334.5c-34.491-29.243-77.98-46.489-125.219-46.489-115.471,0-206.948,92.227-206.948,203.949,0,112.472,91.477,203.95,206.948,203.95,47.239,0,89.978-17.246,124.469-45.739v192.7h98.226V297.756Zm-96.726,194.2c0,65.984-52.487,117.721-117.721,117.721A117.441,117.441,0,0,1,291.879,491.957c0-65.233,53.237-118.47,117.721-118.47C474.834,373.487,527.321,426.724,527.321,491.957ZM691.5,544.444c0,83.979,62.234,149.963,152.962,149.963,41.989,0,79.48-15.746,106.473-43.489v34.491h98.224V297.756H950.936V524.949c0,49.488-32.992,83.23-80.98,83.23s-80.23-35.242-80.23-83.23V297.756H691.5V544.444ZM1166.11,256.516c30.74,0,53.98-23.994,53.98-54.736s-23.24-53.987-53.98-53.987-55.49,23.244-55.49,53.987S1135.36,256.516,1166.11,256.516Zm48.73,41.24h-98.22V685.409h98.22V297.756ZM1366.3,491.208c0-65.234,51.73-116.971,115.47-116.971,41.24,0,74.98,19.5,97.47,50.237l69.74-50.987c-38.99-50.987-91.48-85.479-167.21-85.479-119.97,0-212.95,90.728-212.95,203.2s92.98,203.949,212.95,203.949c75.73,0,128.22-34.492,167.21-85.479l-69.74-50.987c-22.49,30.742-56.23,50.237-97.47,50.237C1418.03,608.928,1366.3,556.441,1366.3,491.208ZM1689.44,160.54V685.409h98.23V512.2l138.71,173.207h119.97l-167.96-200.95,156.72-186.7H1922.63L1787.67,464.964V160.54h-98.23Z"/>
  <path id="chop" class="cls-3" d="M841.323,1003.18c0-57.26,45.414-102.673,101.358-102.673,36.2,0,65.819,17.112,85.559,44.1l61.21-44.756c-34.22-44.755-80.29-75.031-146.769-75.031-105.307,0-186.92,79.639-186.92,178.363s81.613,179.02,186.92,179.02c66.479,0,112.549-30.27,146.769-75.03l-61.21-44.75c-19.74,26.98-49.359,44.09-85.559,44.09C886.737,1106.51,841.323,1060.44,841.323,1003.18Zm369.867-28.958c0-45.414,29.62-73.057,71.09-73.057,42.12,0,70.42,28.959,70.42,73.057V1173.65h86.22V957.109c0-74.373-53.97-132.95-132.95-132.95-37.52,0-71.08,13.821-94.78,38.832V712.927h-86.22V1173.65h86.22V974.222Zm648.94,29.618c0-99.384-83.59-179.023-186.92-179.023-102.68,0-186.92,80.3-186.92,179.023s84.24,179.02,186.92,179.02C1776.54,1182.86,1860.13,1102.57,1860.13,1003.84Zm-85.56,0c0,57.26-44.76,102.67-101.36,102.67-55.95,0-101.36-45.41-101.36-102.67s45.41-102.675,101.36-102.675C1729.81,901.165,1774.57,946.579,1774.57,1003.84Zm132.92-170.467V1311.86h86.22V1142.71c30.28,25.01,67.79,40.15,109.26,40.15,101.36,0,181.66-80.29,181.66-179.02,0-98.068-80.3-179.023-181.66-179.023-41.47,0-79.64,15.138-109.92,40.806v-32.25h-85.56Zm84.91,170.467c0-57.261,46.07-103.992,103.33-103.992,56.6,0,103.33,46.731,103.33,103.992a103.083,103.083,0,0,1-103.33,103.33C2038.47,1107.17,1992.4,1061.76,1992.4,1003.84Z"/>
</svg>
